<?xml version="1.0" encoding="UTF-8" standalone="no"?>
<svg
   xmlns:dc="http://purl.org/dc/elements/1.1/"
   xmlns:cc="http://creativecommons.org/ns#"
   xmlns:rdf="http://www.w3.org/1999/02/22-rdf-syntax-ns#"
   xmlns:svg="http://www.w3.org/2000/svg"
   xmlns="http://www.w3.org/2000/svg"
   xmlns:sodipodi="http://sodipodi.sourceforge.net/DTD/sodipodi-0.dtd"
   xmlns:inkscape="http://www.inkscape.org/namespaces/inkscape"
   width="210mm"
   height="50mm"
   viewBox="0 0 210 50"
   version="1.1"
   id="svg275"
   inkscape:version="1.0 (4035a4fb49, 2020-05-01)"
   sodipodi:docname="jasmineLogo.svg">
  <defs
     id="defs269" />
  <sodipodi:namedview
     inkscape:snap-global="false"
     inkscape:snap-nodes="false"
     inkscape:snap-others="false"
     showguides="false"
     id="base"
     pagecolor="#ffffff"
     bordercolor="#666666"
     borderopacity="1.0"
     inkscape:pageopacity="0.0"
     inkscape:pageshadow="2"
     inkscape:zoom="1"
     inkscape:cx="465.18289"
     inkscape:cy="360.40837"
     inkscape:document-units="mm"
     inkscape:current-layer="layer1"
     inkscape:document-rotation="0"
     showgrid="false"
     inkscape:window-width="1920"
     inkscape:window-height="1052"
     inkscape:window-x="0"
     inkscape:window-y="0"
     inkscape:window-maximized="1" />
  <metadata
     id="metadata272">
    <rdf:RDF>
      <cc:Work
         rdf:about="">
        <dc:format>image/svg+xml</dc:format>
        <dc:type
           rdf:resource="http://purl.org/dc/dcmitype/StillImage" />
        <dc:title></dc:title>
      </cc:Work>
    </rdf:RDF>
  </metadata>
  <g
     inkscape:label="Layer 1"
     inkscape:groupmode="layer"
     id="layer1">
    <path
       id="path15"
       d="m 50.875586,35.359149 c -0.192787,-1.040655 -0.134501,-1.09531 1.390273,-1.304049 2.158375,-0.295446 2.333862,-0.671703 2.444059,-5.240399 l 0.09384,-3.890266 h -1.382463 c -1.293768,0 -1.382463,-0.04485 -1.382463,-0.699846 0,-0.694684 0.01809,-0.699858 2.441595,-0.699858 h 2.441595 l -0.0094,3.00938 c -0.01162,3.557572 -0.329902,6.410592 -0.842496,7.525108 -0.446018,0.969791 -1.78236,1.663031 -3.660117,1.898693 -1.35677,0.170304 -1.39528,0.155383 -1.534952,-0.598763 z"
       style="fill:#4d4d4d;stroke-width:0.275584" />
    <path
       id="path17"
       d="m 58.430176,35.589138 c -0.168892,-0.281935 5.521705,-12.064407 5.826698,-12.064407 0.323459,0 6.001098,11.739696 5.822133,12.038484 -0.09199,0.153507 -0.524114,0.279048 -0.960423,0.279048 -0.67944,0 -0.891944,-0.200879 -1.480636,-1.399715 L 66.95058,33.042822 h -2.661942 -2.661933 l -0.635339,1.399726 c -0.572197,1.26064 -0.72345,1.399715 -1.522452,1.399715 -0.487915,0 -0.955354,-0.113818 -1.038738,-0.253125 z m 6.966119,-4.469056 0.742514,-0.176844 -0.852803,-1.8896 c -0.469018,-1.039323 -0.937449,-1.889657 -1.040934,-1.889657 -0.178603,0 -1.6284,3.288217 -1.626754,3.689798 0.0023,0.388547 1.615197,0.543219 2.777977,0.266303 z"
       style="fill:#4d4d4d;stroke-width:0.275584" />
    <path
       id="path19"
       d="m 73.783085,35.718731 c -1.674205,-0.476574 -2.189949,-0.830583 -2.189949,-1.50323 0,-0.966016 0.522572,-1.106367 2.052846,-0.551346 2.41903,0.877323 4.192788,0.59692 4.790795,-0.757399 0.292081,-0.661522 0.252099,-0.80395 -0.383928,-1.368496 -0.424167,-0.376502 -1.417892,-0.767979 -2.468829,-0.9726 -2.283993,-0.444723 -3.307767,-1.102981 -3.719991,-2.391943 -0.444828,-1.390789 0.242435,-3.317037 1.455867,-4.080576 1.071167,-0.67399 3.633326,-0.717121 5.413748,-0.09126 1.511152,0.531307 1.641478,0.69908 1.243423,1.600605 l -0.304205,0.688978 -1.455849,-0.528021 c -2.351266,-0.852765 -4.005056,-0.551635 -4.490017,0.817583 -0.36308,1.025012 0.665923,1.861612 2.80109,2.277348 2.103825,0.409607 3.386325,1.138952 3.753046,2.134277 1.235476,3.353186 -2.296468,5.921905 -6.498047,4.725934 z"
       style="fill:#4d4d4d;stroke-width:0.275584" />
    <path
       id="path21"
       d="m 82.865151,35.646868 c -0.413715,-0.10991 -0.478672,-0.319548 -0.35835,-1.157292 0.08065,-0.56277 0.420431,-3.262649 0.754703,-5.999741 0.334271,-2.737093 0.718226,-4.938559 0.853212,-4.892097 0.134986,0.04641 1.426708,2.033926 2.870463,4.416644 1.443754,2.382717 2.743671,4.332224 2.888683,4.332224 0.144929,0 1.485443,-2.04635 2.97874,-4.547436 2.006809,-3.361179 2.761207,-4.41882 2.891819,-4.054409 0.317501,0.885683 1.414272,11.18039 1.240809,11.646828 -0.102564,0.275818 -0.480644,0.454304 -0.962242,0.454304 h -0.793289 l -0.341526,-3.36905 c -0.187895,-1.852986 -0.424658,-3.422073 -0.526251,-3.486864 -0.101604,-0.06484 -1.076938,1.457112 -2.167449,3.381984 -1.385854,2.446198 -2.112932,3.473886 -2.415177,3.413835 -0.237851,-0.0474 -1.227786,-1.49729 -2.199842,-3.222293 -0.972067,-1.724981 -1.901518,-3.272951 -2.065455,-3.439914 -0.216144,-0.219997 -0.389367,0.527644 -0.630106,2.719462 -0.471734,4.295055 -0.434202,4.224325 -2.018742,3.803815 z"
       style="fill:#4d4d4d;stroke-width:0.275584" />
    <path
       id="path23"
       d="m 99.785654,29.683486 v -6.158755 h 0.949496 0.9495 v 6.158755 6.158777 h -0.9495 -0.949496 z"
       style="fill:#4d4d4d;stroke-width:0.275584" />
    <path
       id="path25"
       d="m 110.93169,32.009106 -3.82123,-4.113116 v 1.410628 c 0,0.775851 -0.0794,2.56378 -0.17636,3.973164 l -0.17634,2.562481 h -1.04454 -1.04452 l 0.0337,-4.409128 c 0.018,-2.425004 0.11012,-5.283719 0.20348,-6.352651 l 0.16979,-1.943567 3.79802,4.110995 3.79806,4.111018 0.14876,-3.767267 c 0.0819,-2.072029 0.2148,-3.8356 0.29577,-3.919065 0.0809,-0.08349 0.53282,-0.07205 1.0043,0.02531 l 0.85718,0.176843 v 6.123795 c 0,3.368084 -0.0507,6.12375 -0.11236,6.12375 -0.062,0 -1.83198,-1.850899 -3.93367,-4.113093 z"
       style="fill:#4d4d4d;stroke-width:0.275584" />
    <path
       id="path27"
       d="m 118.23329,29.683486 v -6.158755 h 4.06932 4.06932 v 0.83982 0.839843 h -3.1198 -3.11984 v 1.819636 1.819625 h 2.98418 2.9842 v 0.839831 0.839842 h -2.9842 -2.98418 v 1.819647 1.819637 h 3.11984 3.1198 v 0.83982 0.839831 h -4.06932 -4.06932 z"
       style="fill:#4d4d4d;stroke-width:0.275584" />
    <path
       id="path29"
       d="m 133.42543,29.683486 v -6.158755 h 4.06935 4.06933 v 0.83982 0.839843 h -3.11982 -3.11983 v 1.819636 1.819625 h 3.07284 3.07283 l -0.11937,0.839831 -0.11938,0.839842 h -2.95338 -2.9534 v 2.65949 2.659445 h -0.9495 -0.94952 z"
       style="fill:#4d4d4d;stroke-width:0.275584" />
    <path
       id="path31"
       d="m 144.0057,29.683486 v -6.158755 h 0.94951 0.94951 v 6.158755 6.158777 h -0.94951 -0.94951 z"
       style="fill:#4d4d4d;stroke-width:0.275584" />
    <path
       id="path33"
       d="m 149.17424,29.473548 0.0136,-6.368749 3.87753,4.15426 3.87757,4.154237 0.17612,-2.334601 c 0.0967,-1.284044 0.17681,-3.058972 0.1777,-3.944288 l 0.002,-1.609676 h 0.94952 0.94952 v 6.158755 c 0,3.576524 -0.10491,6.158777 -0.2504,6.158777 -0.13769,0 -1.87735,-1.761928 -3.86586,-3.915412 -1.98851,-2.153472 -3.70702,-3.917099 -3.81895,-3.919208 -0.112,-0.0022 -0.20347,1.75984 -0.20347,3.915411 v 3.919209 h -0.94951 -0.94949 z"
       style="fill:#4d4d4d;stroke-width:0.275584" />
    <path
       id="path35"
       d="m 162.18203,29.696187 v -5.866151 l 0.97601,-0.188989 c 1.10909,-0.214624 5.27883,0.07694 6.18549,0.432655 3.69229,1.448597 4.62023,7.251033 1.6218,10.141056 -1.18673,1.143781 -2.02523,1.347524 -5.54548,1.347524 h -3.23782 z m 6.73921,3.702842 c 2.3598,-1.814951 2.3598,-5.616124 0,-7.431097 -0.49838,-0.383273 -1.31565,-0.598574 -2.64506,-0.696727 l -1.92383,-0.142094 v 4.554342 4.554341 l 1.92383,-0.142083 c 1.32941,-0.09814 2.14668,-0.313442 2.64506,-0.696782 z"
       style="fill:#4d4d4d;stroke-width:0.275584" />
    <path
       id="path37"
       d="m 177.37632,35.548971 -2.23814,-0.09426 v -5.834843 c 0,-5.814316 0.002,-5.835466 0.61039,-6.003672 1.62445,-0.44923 1.55992,-0.661944 1.55992,5.142502 v 5.318924 h 2.71288 2.71291 v 0.839842 0.839843 l -1.55994,-0.05695 c -0.85795,-0.03131 -2.56707,-0.09936 -3.79802,-0.151419 z"
       style="fill:#4d4d4d;stroke-width:0.275584" />
    <path
       id="path39"
       d="m 184.00021,35.527999 c -0.26252,-0.438339 5.54248,-12.435945 5.85906,-12.109281 0.50692,0.523081 5.69127,11.335884 5.69127,11.870056 0,0.4451 -0.18449,0.553489 -0.94197,0.553489 -0.8717,0 -0.9855,-0.104581 -1.52549,-1.399715 l -0.58353,-1.399726 h -2.76129 -2.76128 l -0.57307,1.399726 c -0.50816,1.241134 -0.66612,1.399715 -1.39428,1.399715 -0.45165,0 -0.90588,-0.141384 -1.00942,-0.314264 z m 7.41082,-4.558993 c 0.15961,-0.164709 -1.45746,-3.805014 -1.69028,-3.805014 -0.13522,0 -1.76629,3.497001 -1.76629,3.786751 0,0.345427 3.12351,0.361947 3.45657,0.01865 z"
       style="fill:#4d4d4d;stroke-width:0.275584" />
    <path
       id="path43"
       d="m 200.43375,33.477697 v -2.364576 l -2.05158,-3.512743 c -1.12837,-1.932044 -1.97571,-3.639417 -1.88302,-3.794223 0.0926,-0.154672 0.49951,-0.281424 0.90399,-0.281424 0.64288,0 0.93892,0.352255 2.35237,2.79943 0.88935,1.5397 1.68284,2.79943 1.76339,2.79943 0.0806,0 0.87406,-1.25973 1.76338,-2.79943 1.59598,-2.763148 1.63031,-2.79943 2.64921,-2.79943 1.22898,0 1.34351,-0.332915 -1.59808,4.646055 l -2.00066,3.386325 v 2.142581 2.142571 h -0.94951 -0.94949 z"
       style="fill:#4d4d4d;stroke-width:0.275584" />
    <path
       id="path45"
       d="m 9.291652,47.847694 c -0.819439,-0.0344 -1.4083,-0.0936 -1.462513,-0.14748 -0.04993,-0.0495 -0.125446,-0.26505 -0.167853,-0.47895 -0.04514,-0.22778 -0.09383,-5.51994 -0.117474,-12.7719 l -0.0404,-12.38296 -1.814087,1.76744 c -1.8778929,1.82956 -2.4499239,2.29114 -2.8394109,2.29114 -0.2760062,0 -0.8058352,-0.43395 -0.8058352,-0.65999 0,-0.28868 0.303391,-0.75113 1.1089772,-1.69036 0.905114,-1.05527 17.8688859,-17.9160703 20.0288419,-19.9072603 1.615574,-1.48935 1.726373,-1.56598 2.030835,-1.40434 0.437807,0.23244 2.179969,1.8817 6.823777,6.45986 2.633758,2.5965203 4.809426,4.7209603 4.834841,4.7209603 0.02546,0 0.06016,-1.13972 0.07726,-2.53271 0.03331,-2.7103803 0.06851,-2.9621603 0.438492,-3.1293803 0.5267,-0.23805 1.082166,-0.0431 1.245267,0.43683 0.114389,0.33671 0.245959,3.4152903 0.254033,5.9442403 l 0.004,1.32685 3.764,3.7688 c 4.06946,4.07466 4.917689,4.98114 5.156528,5.51063 0.173223,0.38401 0.13523,0.52884 -0.244776,0.933 -0.279448,0.29722 -0.585385,0.28711 -1.062955,-0.0352 -0.210302,-0.14195 -1.175266,-1.03544 -2.144356,-1.98566 -0.96909,-0.9502 -1.781144,-1.72763 -1.804561,-1.72763 -0.02347,0 -0.06841,5.42504 -0.10008,12.05564 -0.052,10.91365 -0.09496,13.30177 -0.241832,13.44741 -0.193647,0.19211 -1.650032,0.21288 -16.14883,0.23011 -8.470219,0.01 -16.017689,-0.008 -16.772159,-0.0392 z m 31.151316,-14.7857 v -13.08141 l -7.692583,-7.58541 c -4.23093,-4.1719703 -7.72725,-7.5854003 -7.769606,-7.5854003 -0.04235,0 -3.54764,3.43477 -7.789517,7.6328103 l -7.712497,7.63282 v 13.034 13.034 h 15.482101 15.482102 z"
       style="fill:#4d4d4d;stroke-width:0.0813725" />
    <path
       id="path47"
       d="m 26.016537,30.018401 v -5.55166 h 3.96243 3.96244 v 0.71684 c 0,0.96653 -0.03679,0.99824 -1.24996,1.07672 -0.503303,0.0325 -1.770714,0.0617 -2.816487,0.0649 l -1.9014,0.006 0.02237,1.43857 0.02227,1.43857 2.879926,0.0212 2.879906,0.0212 v 0.80941 0.80945 h -2.90034 -2.90034 v 2.35034 2.35033 h -0.9804 -0.980396 z"
       style="fill:#4d4d4d;stroke-width:0.0813725" />
    <path
       id="path49"
       d="m 18.115315,35.674591 c -0.120518,-0.11959 -0.177116,-0.32352 -0.219991,-0.79287 -0.03174,-0.34754 -0.02814,-0.6569 0.0081,-0.68743 0.03616,-0.0305 0.45179,-0.0967 0.923603,-0.14709 1.17378,-0.12532 1.655516,-0.28144 2.037167,-0.66004 0.615352,-0.61043 0.734641,-1.38636 0.738105,-4.80115 l 0.0025,-2.48607 -1.13995,-0.0263 c -0.795786,-0.0191 -1.171935,-0.0582 -1.245921,-0.13162 -0.06461,-0.0642 -0.117223,-0.37259 -0.134787,-0.7902 l -0.02879,-0.68488 h 2.263157 2.263153 l -0.04009,3.78892 c -0.03123,2.95354 -0.06782,3.92905 -0.165928,4.42447 -0.285074,1.43978 -0.669722,2.03781 -1.609922,2.50306 -0.700469,0.34663 -1.574806,0.54317 -2.702785,0.60755 -0.709165,0.0405 -0.801045,0.0292 -0.947577,-0.11615 z"
       style="fill:#4d4d4d;stroke-width:0.0813725" />
    <path
       id="path59"
       d="m 75.412011,23.539852 c 0.06922,-0.02842 0.151941,-0.02487 0.18381,0.0078 0.03188,0.03286 -0.02463,0.05618 -0.125922,0.05207 -0.111717,-0.0033 -0.134524,-0.02831 -0.0579,-0.05973 z"
       style="fill:#4d4d4d;stroke-width:0.0974332" />
    <path
       id="path61"
       d="m 126.36484,35.050037 v -0.846504 h -3.16185 -3.16181 v -1.81746 -1.817449 h 3.02806 3.02806 v -0.858937 -0.858949 h -3.02806 -3.02806 v -1.81746 -1.817472 h 3.16181 3.16185 V 24.35688 23.497942 h 0.10941 0.10942 v 0.921176 0.921164 h -3.23478 -3.23477 v 1.668094 1.668094 h 3.02803 3.02806 v 1.02076 1.02076 h -3.02806 -3.02806 v 1.668083 1.668106 h 3.2348 3.23478 v 0.921164 0.921186 h -0.10942 -0.10941 z"
       style="fill:#4d4d4d;stroke-width:0.0246074" />
    <path
       id="path63"
       d="m 133.18285,29.679634 v -6.16122 h 0.11983 0.11982 v 6.16122 6.161197 h -0.11982 -0.11983 z"
       style="fill:#4d4d4d;stroke-width:0.0243582" />
    <path
       id="path65"
       d="m 118.05407,29.679634 v -6.16122 h 0.0958 0.0958 v 6.16122 6.161197 h -0.0958 -0.0958 z"
       style="fill:#4d4d4d;stroke-width:0.0243582" />
    <path
       id="path67"
       d="m 126.19896,29.684452 c 0,-0.566479 6.1e-4,-0.79821 0.002,-0.514988 5.8e-4,0.283256 5.8e-4,0.74673 0,1.029953 -6e-4,0.283245 -0.002,0.05151 -0.002,-0.514965 z"
       style="fill:#4d4d4d;stroke-width:0.00608961" />
    <path
       id="path69"
       d="m 126.19891,29.684452 c 0,-0.348747 6.2e-4,-0.491407 0.002,-0.317028 5.9e-4,0.174268 5.9e-4,0.459699 0,0.634067 -5.9e-4,0.174268 -0.002,0.03175 -0.002,-0.317039 z"
       style="fill:#4d4d4d;stroke-width:0.00608961" />
    <path
       id="path71"
       d="m 120.1197,30.520086 c 0,-0.08404 0.33571,-0.111985 2.98536,-0.111985 2.64964,0 2.98534,0.01221 2.98534,0.111985 0,0.111986 -0.3357,0.111986 -2.98534,0.111986 -2.64965,0 -2.98536,-0.01221 -2.98536,-0.111986 z"
       style="fill:#4d4d4d;stroke-width:0.0206166" />
    <path
       id="path73"
       d="m 125.97881,30.539926 c 0.007,-0.001 0.018,-0.001 0.0239,1.11e-4 0.007,0.0022 -3.9e-4,0.0022 -0.0135,0.0022 -0.0136,-6.7e-5 -0.018,-0.001 -0.0117,-0.0022 z"
       style="fill:#4d4d4d;stroke-width:0.00608961" />
    <path
       id="path77"
       d="m 114.78986,36.112296 c -0.25039,-0.06506 -0.75038,-0.534671 -1.81832,-1.707994 -0.79852,-0.877323 -1.16113,-1.284344 -4.05274,-4.549124 -1.53934,-1.738003 -1.58272,-1.785198 -1.58744,-1.726846 -0.002,0.03308 -0.0117,0.446544 -0.0176,0.919066 l -0.0131,0.85906 -0.002,-0.997657 -0.002,-0.997679 0.0638,0.06916 c 0.0351,0.03797 0.84549,0.928237 1.80088,1.978239 2.9861,3.281778 3.7939,4.159911 4.87106,5.294944 0.67506,0.711381 0.78876,0.823489 0.81109,0.799986 0.034,-0.03586 0.0657,-0.959744 0.0885,-2.571773 0.01,-0.620456 0.0154,-3.03014 0.0154,-5.354861 l 2.3e-4,-4.226755 -0.52355,-0.107467 c -0.28797,-0.05928 -0.58646,-0.115405 -0.66332,-0.125186 -0.26087,-0.03286 -0.58424,-0.01843 -0.62928,0.02975 -0.0728,0.0766 -0.19265,1.585618 -0.26936,3.388901 -0.0355,0.838821 -0.0353,0.832959 -0.0374,0.572728 -0.002,-0.388669 0.0525,-4.109807 0.0615,-4.117356 0.0117,-0.01 2.18225,0.110353 2.19299,0.120534 0.0117,0.01221 0.0638,6.287904 0.0649,7.867116 0.002,2.421185 -0.0476,4.364031 -0.11435,4.495334 -0.0351,0.06928 -0.14906,0.111131 -0.23895,0.08771 z"
       style="fill:#4d4d4d;stroke-width:0.0169175" />
    <path
       id="path79"
       d="m 109.00281,27.470651 c -1.99569,-2.159723 -3.64665,-3.949916 -3.66883,-3.978171 -0.14672,-0.187113 0.231,0.154895 0.72479,0.65656 0.60573,0.615249 1.3737,1.440859 5.17368,5.562057 1.27618,1.38405 1.41632,1.541631 1.42119,1.597974 0.002,0.03419 -6.1e-4,0.06839 -0.01,0.07538 -0.007,0.0078 -1.64669,-1.754112 -3.64237,-3.913835 z"
       style="fill:#4d4d4d;stroke-width:0.017224" />
    <path
       id="path81"
       d="m 106.75013,35.780114 c 0,-0.03486 0.0418,-0.674645 0.0928,-1.421608 0.13498,-1.974564 0.18381,-2.823666 0.22708,-3.965104 l 0.0135,-0.367409 0.002,0.323678 c 0.001,0.177998 -0.0134,1.351155 -0.031,2.606977 -0.018,1.255811 -0.0335,2.41911 -0.0337,2.585129 l -2.7e-4,0.301785 h -0.13565 -0.13566 z"
       style="fill:#4d4d4d;stroke-width:0.017224" />
    <path
       id="path83"
       d="m 101.654,29.684807 v -6.158799 h 0.0847 0.0847 v 6.158799 6.158755 h -0.0847 -0.0847 z"
       style="fill:#4d4d4d;stroke-width:0.017224" />
    <path
       id="path85"
       d="m 99.731224,29.675692 v -6.158788 h 0.0425 0.0425 v 6.158788 6.158766 h -0.0425 -0.0425 z"
       style="fill:#4d4d4d;stroke-width:0.017224" />
    <path
       id="path87"
       d="m 96.310329,35.8109 c 0.246692,-0.05251 0.41659,-0.141617 0.534406,-0.280281 0.103098,-0.121267 0.107068,-0.147401 0.09584,-0.636798 -0.04354,-1.906087 -0.890394,-9.652158 -1.191545,-10.899054 -0.03896,-0.161268 -0.05731,-0.198692 -0.103631,-0.210705 -0.06425,-0.01621 -0.138649,0.03442 -0.292666,0.200546 -0.391709,0.422519 -0.992968,1.349645 -2.414121,3.722482 -0.817276,1.364555 -1.158392,1.92113 -1.715217,2.798519 -0.137768,0.217155 -0.253794,0.391345 -0.257798,0.387193 -0.0047,-0.0033 0.171204,-0.310445 0.389508,-0.680629 0.218246,-0.370206 0.864471,-1.480049 1.436065,-2.466337 1.836031,-3.168127 2.266485,-3.874434 2.623187,-4.304347 0.09232,-0.111131 0.212439,-0.200535 0.269794,-0.200535 0.06895,0 0.08901,0.05207 0.140666,0.364933 0.25893,1.570152 1.198258,9.353126 1.364314,11.304298 0.03298,0.388947 0.02615,0.65041 -0.02006,0.74834 -0.06329,0.134234 -0.237542,0.17882 -0.691465,0.176732 -0.274512,-10e-4 -0.275313,-10e-4 -0.167209,-0.02442 z"
       style="fill:#4d4d4d;stroke-width:0.0170195" />
    <path
       id="path89"
       d="m 95.11246,35.165586 c -0.09445,-0.796689 -0.189013,-1.69032 -0.342276,-3.232484 -0.144924,-1.459666 -0.222696,-2.089204 -0.32144,-2.606978 -0.02263,-0.115527 -0.04835,-0.232131 -0.05859,-0.25922 -0.02348,-0.0625 -0.02327,-0.06439 0.0043,-0.06439 0.07428,0 0.230082,0.891799 0.398347,2.283299 0.07001,0.578269 0.112355,0.980593 0.29775,2.816938 0.08837,0.875701 0.165042,1.625629 0.170688,1.666528 0.0096,0.06939 0.0075,0.0745 -0.02978,0.0745 -0.03981,0 -0.04002,-0.0022 -0.120292,-0.677965 z"
       style="fill:#4d4d4d;stroke-width:0.017224" />
    <path
       id="path91"
       d="M 89.70355,35.972966 C 89.468845,35.886596 89.224396,35.6082 88.854154,35.00554 88.66446,34.696794 88.496097,34.397063 87.837815,33.196351 c -0.879227,-1.603669 -1.670476,-3.010334 -2.081163,-3.699889 -0.09897,-0.166097 -0.176345,-0.305915 -0.172049,-0.310445 0.02829,-0.0292 0.947015,1.495281 1.707035,2.832026 0.807062,1.419521 1.224746,2.106311 1.695494,2.787984 0.258678,0.37458 0.411015,0.573861 0.566253,0.740823 0.140867,0.151398 0.200999,0.195273 0.26713,0.19504 0.0695,-2.89e-4 0.20869,-0.09892 0.349874,-0.248007 0.398372,-0.420132 0.957627,-1.290283 1.999594,-3.111162 0.711382,-1.243178 1.519876,-2.588215 1.54203,-2.565356 0.0047,0.0033 -0.102842,0.19948 -0.237863,0.43361 -0.387794,0.673057 -0.999762,1.769421 -1.644073,2.945321 -0.685472,1.251092 -0.822865,1.495713 -1.039185,1.850233 -0.471464,0.77262 -0.783289,1.03829 -1.087365,0.926382 z"
       style="fill:#4d4d4d;stroke-width:0.017224" />
    <path
       id="path93"
       d="m 83.880962,35.897928 c -0.03182,-0.0033 -0.128729,-0.0161 -0.215276,-0.02553 -0.407434,-0.0484 -0.872359,-0.173824 -1.097449,-0.296179 -0.158537,-0.08626 -0.194085,-0.129804 -0.194085,-0.23746 0,-0.673934 1.346008,-11.58932 1.47166,-11.934414 0.02595,-0.07161 0.115874,-0.139718 0.166038,-0.126573 0.251846,0.06595 0.711676,0.774718 2.361302,3.639461 1.220519,2.119534 1.572424,2.727345 1.850273,3.195848 0.154122,0.259897 0.276993,0.475975 0.272966,0.48016 -0.01327,0.01388 -0.795264,-1.240856 -1.540175,-2.47433 -1.29771,-2.148854 -2.127688,-3.467525 -2.57923,-4.097862 -0.186794,-0.260708 -0.257563,-0.343517 -0.280878,-0.328474 -0.105073,0.06783 -0.323623,1.175177 -0.569822,2.88748 -0.101315,0.705153 -0.190105,1.398949 -0.415418,3.250636 -0.214829,1.764359 -0.417037,3.392387 -0.537219,4.322632 -0.09732,0.754257 -0.106482,0.863434 -0.08441,1.025257 0.02782,0.203577 0.100963,0.313086 0.25728,0.385471 0.09498,0.04385 0.645955,0.185581 0.842999,0.2167 0.362365,0.05729 0.560265,-0.0322 0.701496,-0.317317 0.193862,-0.391145 0.27441,-0.869218 0.516922,-3.065167 0.06469,-0.584852 0.136007,-1.215089 0.158524,-1.400525 0.08394,-0.688467 0.199603,-1.370106 0.26348,-1.551535 0.03346,-0.09559 0.03041,-0.0363 -0.0155,0.312887 -0.182603,1.36652 -0.651755,5.286462 -0.701297,5.859879 -0.01773,0.191598 -0.03252,0.220418 -0.138003,0.253602 -0.06974,0.02309 -0.387794,0.03819 -0.4937,0.02554 z"
       style="fill:#4d4d4d;stroke-width:0.0169208" />
    <path
       id="path95"
       d="m 104.69367,30.675658 c -0.004,-3.542507 0.0232,-5.911125 0.0821,-6.998619 0.0242,-0.443823 0.0276,-0.461786 0.10033,-0.512711 0.0455,-0.03175 0.0741,-0.03941 0.12413,-0.03275 0.0357,0.0033 0.0693,0.01399 0.0741,0.01865 0.004,0.0033 -0.0226,0.366066 -0.0608,0.80194 -0.12503,1.416601 -0.14651,1.728545 -0.1879,2.734606 -0.0649,1.579189 -0.11329,3.956689 -0.12457,6.141258 -0.002,0.384928 -0.004,-0.583498 -0.007,-2.152063 z"
       style="fill:#4d4d4d;stroke-width:0.017224" />
    <path
       id="path97"
       d="m 76.211755,30.765951 c -0.268197,-0.0554 -0.758527,-0.15555 -1.089651,-0.22214 -1.359697,-0.274074 -2.357411,-0.748584 -2.904845,-1.381541 -0.214113,-0.247518 -0.452916,-0.72699 -0.549855,-1.103902 -0.09735,-0.378012 -0.104881,-1.180407 -0.01574,-1.6073 0.294787,-1.407897 1.255697,-2.506948 2.521549,-2.884016 0.519189,-0.154628 0.992641,-0.201878 1.819907,-0.181362 0.990616,0.02442 1.644054,0.134811 2.488499,0.420021 0.56026,0.1892 0.785714,0.295535 1.452413,0.684559 l 0.544429,0.317728 -0.315453,0.622443 c -0.290845,0.573817 -0.473096,0.874258 -0.508363,0.83801 -0.0094,-0.01 0.06269,-0.184126 0.15694,-0.391233 0.522592,-1.149699 0.433345,-1.318271 -0.958132,-1.809489 -0.966155,-0.341064 -1.805713,-0.480716 -2.927661,-0.48701 -0.988833,-0.0033 -1.816271,0.128583 -2.361831,0.382862 -0.862642,0.402058 -1.553888,1.403601 -1.77674,2.574304 -0.06773,0.355541 -0.06946,0.9993 -0.0047,1.317616 0.190126,0.919122 0.739206,1.584119 1.677405,2.031684 0.516515,0.246408 1.018237,0.399793 1.99393,0.609587 0.714515,0.153696 1.527229,0.388014 1.29471,0.373371 -0.02778,-0.0022 -0.269874,-0.04863 -0.53807,-0.104248 z"
       style="fill:#4d4d4d;stroke-width:0.0340932" />
    <path
       id="path111"
       d="m 73.686966,27.255484 c -0.06922,-0.220241 -0.06281,-0.451207 0.01809,-0.693019 0.06059,-0.178953 0.167759,-0.37981 0.287015,-0.537646 0.333605,-0.441837 0.906164,-0.711049 1.60078,-0.75267 0.492374,-0.02964 0.952075,0.01399 1.514023,0.140673 0.462281,0.105025 0.645612,0.16401 1.750648,0.564369 0.430128,0.15585 0.785331,0.283356 0.789358,0.283356 0.0047,0 0.02583,-0.04174 0.04849,-0.09292 0.0459,-0.10347 0.06058,-0.112474 0.02031,-0.01221 -0.02947,0.07372 -0.03181,0.09659 -0.01174,0.09703 0.0135,2.34e-4 0.0135,0.0022 -0.0023,0.0141 -0.06422,0.05251 -0.176134,0.07771 -0.282545,0.06384 -0.170464,-0.02098 -0.369045,-0.10125 -0.959454,-0.382885 -0.311319,-0.148378 -0.431684,-0.199702 -0.644305,-0.27413 -0.44268,-0.154906 -0.907948,-0.250238 -1.403078,-0.287274 -0.153961,-0.01221 -0.587736,-0.01221 -0.733747,7.7e-5 -0.827146,0.06528 -1.449083,0.330673 -1.71183,0.730211 -0.05696,0.08682 -0.07705,0.130881 -0.131805,0.289084 -0.116155,0.336701 -0.163918,0.650287 -0.130905,0.860203 0.0047,0.03075 0.007,0.05718 0.007,0.05873 -0.0023,0.0022 -0.01353,-0.02942 -0.02557,-0.06872 z"
       style="fill:#4d4d4d;stroke-width:0.00861191" />
    <path
       id="path113"
       d="m 58.640657,35.80546 c -0.123847,-0.01 -0.262598,-0.02565 -0.308539,-0.03453 -0.07633,-0.0161 -0.08218,-0.02298 -0.06822,-0.08116 0.03906,-0.164009 3.384408,-7.294109 4.186645,-8.922725 0.941528,-1.911427 1.619795,-3.210525 1.777559,-3.404543 l 0.05472,-0.06728 0.08476,0.14024 c 0.44664,0.73867 3.37108,6.666826 5.041174,10.219081 0.778777,1.65647 0.9376,2.02389 0.888697,2.05623 -0.08127,0.05396 -0.594194,0.119679 -0.910108,0.116871 l -0.161784,-10e-4 0.150221,-0.03208 c 0.212377,-0.0453 0.399401,-0.124775 0.463313,-0.196738 0.05167,-0.05806 0.05302,-0.06805 0.02578,-0.177165 -0.248187,-0.990718 -3.985222,-9.005834 -5.23376,-11.225275 -0.223691,-0.397617 -0.327105,-0.547127 -0.378428,-0.547127 -0.01745,0 -0.08309,0.07982 -0.144988,0.177376 -0.867463,1.365998 -5.076851,10.318543 -5.451924,11.59517 -0.03963,0.134712 -0.03963,0.141872 5.75e-4,0.189145 0.05516,0.06461 0.252544,0.140939 0.471788,0.183149 l 0.176611,0.03397 -0.219693,-0.001 c -0.120796,-5.99e-4 -0.320958,-0.01 -0.444692,-0.01843 z"
       style="fill:#4d4d4d;stroke-width:0.0237846" />
    <path
       id="path115"
       d="m 59.962515,35.774607 c 0.267205,-0.06694 0.45712,-0.242433 0.674422,-0.623198 0.06922,-0.121034 0.322234,-0.651753 0.562462,-1.179108 l 0.43675,-0.958822 h 2.653061 2.653024 l 0.42398,0.862169 c 0.496354,1.009303 0.620549,1.239735 0.798814,1.48188 0.180426,0.245254 0.370679,0.379222 0.618856,0.436019 0.0265,0.0078 -0.101326,0.01 -0.283794,0.0078 l -0.331735,-0.0033 -0.631394,-1.323788 -0.631393,-1.3238 -2.617492,-0.0078 -2.61749,-0.0078 -0.638632,1.336278 -0.638607,1.336268 -0.276777,-0.0022 c -0.272144,-0.0022 -0.2747,-0.0022 -0.153973,-0.03286 z"
       style="fill:#4d4d4d;stroke-width:0.0243582" />
    <path
       id="path117"
       d="m 50.871583,35.516642 c -0.150008,-0.687867 -0.173837,-0.831871 -0.156112,-0.943202 0.04082,-0.256067 0.174165,-0.307402 1.177244,-0.452983 1.195704,-0.173657 1.607552,-0.293447 1.955065,-0.569087 0.157874,-0.125386 0.336246,-0.370972 0.411254,-0.566723 0.02911,-0.07583 0.05616,-0.121877 0.05991,-0.102804 0.01127,0.0554 -0.121097,0.349668 -0.224675,0.4998 -0.174597,0.252814 -0.427572,0.427126 -0.785519,0.541266 -0.260407,0.08282 -0.444849,0.117969 -1.167604,0.221828 -1.177867,0.169117 -1.324896,0.254058 -1.288743,0.744166 0.01944,0.263106 0.124894,0.759764 0.187647,0.883506 0.122371,0.241335 0.35048,0.264516 1.369656,0.139241 1.835718,-0.225681 3.096533,-0.835157 3.558673,-1.720184 0.354447,-0.678731 0.632158,-2.22145 0.760985,-4.2271 0.06322,-0.985178 0.0748,-1.44369 0.08698,-3.450661 0.01318,-2.084751 0.01545,-2.153084 0.05662,-2.153084 0.05457,0 0.05434,-0.117969 0.0092,2.755966 -0.04492,2.851476 -0.08174,3.768699 -0.188479,4.719517 -0.288988,2.570951 -1.005475,3.574114 -2.835772,3.97041 -0.319523,0.06917 -0.815304,0.14074 -1.202651,0.173902 -0.35271,0.0302 -1.403023,0.09303 -1.550835,0.09303 h -0.111071 z"
       style="fill:#4d4d4d;stroke-width:0.0231584" />
    <path
       id="path119"
       d="m 54.609868,31.092227 c 0.007,-0.122477 0.02031,-1.517052 0.02849,-3.099084 l 0.01587,-2.876466 h -1.297353 -1.297363 l 0.0012,-0.315507 c 0.0012,-0.29428 0.0023,-0.309235 0.03327,-0.222561 0.0984,0.284465 0.262104,0.314185 1.734173,0.314807 0.912034,4.11e-4 0.989126,0.0033 0.989126,0.0423 0,0.18548 -0.100387,4.139638 -0.12005,4.721426 -0.02732,0.815596 -0.07096,1.626151 -0.08837,1.645379 -0.007,0.0078 -0.0047,-0.08793 0.0023,-0.210204 z"
       style="fill:#4d4d4d;stroke-width:0.0243582" />
    <path
       id="path121"
       d="m 52.037712,23.755453 -2.3e-5,-0.191765 0.413626,0.0033 c 0.227516,0.0022 0.370468,0.01 0.317716,0.01221 -0.436411,0.0393 -0.605759,0.104803 -0.681474,0.262628 l -0.04973,0.103804 z"
       style="fill:#4d4d4d;stroke-width:0.0243582" />
    <path
       id="path125"
       d="m 62.673197,30.552848 c 0,-0.05262 0.254329,-0.715877 0.481728,-1.255911 0.380601,-0.903845 0.998768,-2.150663 1.043443,-2.104557 0.007,0.0078 -0.186752,0.445256 -0.429992,0.974121 -0.532039,1.156981 -0.72875,1.59229 -0.926603,2.050268 -0.156681,0.362724 -0.168658,0.386405 -0.168658,0.336079 z"
       style="fill:#4d4d4d;stroke-width:0.0243582" />
    <path
       id="path129"
       d="m 65.99648,30.958026 c 0,-0.02542 -0.127508,-0.344328 -0.274419,-0.686346 -0.210484,-0.489586 -0.378815,-0.864456 -0.887801,-1.975763 -0.251936,-0.550137 -0.455685,-1.002698 -0.452743,-1.005695 0.0094,-0.01 0.135657,0.199236 0.266878,0.434642 0.198274,0.355297 0.567341,1.128649 1.039415,2.177464 0.248061,0.551158 0.45272,1.00988 0.454775,1.019339 0.0023,0.01221 -0.01587,0.02331 -0.05603,0.03386 -0.07412,0.02087 -0.09,0.02087 -0.09,0.0022 z"
       style="fill:#4d4d4d;stroke-width:0.0121791" />
    <path
       id="path131"
       d="m 64.05141,31.260322 c 0.02825,-0.0022 0.07144,-0.0022 0.09584,10e-5 0.02463,0.0022 0.0012,0.0033 -0.05137,0.0033 -0.05264,-4.4e-5 -0.07284,-0.0022 -0.04459,-0.0033 z"
       style="fill:#4d4d4d;stroke-width:0.0121791" />
    <path
       id="path133"
       d="m 63.827998,31.26907 c -0.447538,-0.02098 -0.813804,-0.0887 -1.026961,-0.188756 -0.01809,-0.01 -0.03233,-0.01632 -0.03141,-0.01632 6.07e-4,-5.99e-4 0.03863,0.0022 0.08393,0.01 0.197374,0.02642 0.45321,0.04485 0.821915,0.05917 0.19308,0.0078 0.760607,0.01 0.989769,0.0033 0.301514,-0.0078 0.561645,-0.02098 0.756649,-0.03764 0.09315,-0.01 0.142884,-0.01221 0.137688,-0.01 -0.0023,0.001 -0.06712,0.01632 -0.144015,0.03486 -0.321392,0.07505 -0.565614,0.110465 -0.951631,0.138342 -0.06199,0.0033 -0.567282,0.01 -0.635853,0.0033 z"
       style="fill:#4d4d4d;stroke-width:0.00430597" />
    <path
       id="path137"
       d="M 145.91192,29.683863 V 23.51636 h 0.10597 0.10598 v 6.167503 6.167515 h -0.10598 -0.10597 z"
       style="fill:#4d4d4d;stroke-width:0.017224" />
    <path
       id="path139"
       d="m 148.96878,32.869376 c 5.9e-4,-5.440746 0.0446,-8.955865 0.11847,-9.504991 0.0136,-0.09303 0.0239,-0.1209 0.0626,-0.15304 0.026,-0.02087 0.0532,-0.03941 0.0601,-0.03941 0.0136,-10e-5 0.002,7.09797 -0.0158,10.685907 l -0.0117,1.998978 h -0.10813 -0.10812 z"
       style="fill:#4d4d4d;stroke-width:0.017224" />
    <path
       id="path141"
       d="m 153.079,27.313258 c -2.10351,-2.253612 -3.82157,-4.100559 -3.81789,-4.104345 0.0117,-0.01221 0.15078,0.06694 0.2473,0.140451 0.2734,0.20834 1.00726,0.953705 1.98477,2.015919 2.29668,2.49578 5.44177,5.958753 5.44177,5.991793 0,0.01865 -0.007,0.03797 -0.0158,0.04374 -0.01,0.0033 -1.73675,-1.833857 -3.84027,-4.087492 z"
       style="fill:#4d4d4d;stroke-width:0.017224" />
    <path
       id="path143"
       d="m 158.94952,36.14901 c -0.30077,-0.20553 -1.37383,-1.326131 -3.79431,-3.96225 -1.44505,-1.573783 -3.55108,-3.880263 -3.56481,-3.904077 -0.0457,-0.07927 0.0871,0.04785 0.67653,0.647567 0.69802,0.71026 1.68447,1.752181 3.00888,3.178074 0.9636,1.037424 2.33428,2.46505 2.87298,2.992249 0.56517,0.553145 0.76979,0.727934 0.8053,0.687923 0.0843,-0.09526 0.14786,-0.956835 0.20574,-2.796555 0.0117,-0.337533 0.0226,-2.436206 0.0266,-5.05212 l 0.01,-4.474718 h 0.0425 0.0425 l -0.01,5.04335 c -0.004,3.064678 -0.0159,5.280211 -0.027,5.646998 -0.0461,1.504595 -0.0955,2.047082 -0.18698,2.047082 -0.0159,0 -0.0649,-0.02398 -0.10812,-0.0534 z"
       style="fill:#4d4d4d;stroke-width:0.017224" />
    <path
       id="path145"
       d="m 151.02531,33.572464 c 2e-4,-2.681305 0.0226,-3.907074 0.085,-4.789648 0.018,-0.242245 0.0526,-0.599629 0.0584,-0.59098 0.004,0.0033 -0.10427,7.647596 -0.10765,7.65519 -0.001,0.0022 -0.01,0.0033 -0.018,0.0033 -0.0117,0 -0.0158,-0.771176 -0.0158,-2.278914 z"
       style="fill:#4d4d4d;stroke-width:0.017224" />
    <path
       id="path147"
       d="m 157.07951,29.556546 c -0.002,-0.288019 0.0748,-6.002816 0.0807,-6.031937 5.1e-4,-0.0022 0.0388,-0.0033 0.0857,-0.0033 h 0.0847 l -6e-5,0.914192 c -9e-5,1.231697 -0.0332,2.259918 -0.11914,3.704907 -0.03,0.502009 -0.10598,1.581965 -0.12345,1.749638 -0.004,0.03386 -0.007,-0.115894 -0.01,-0.332426 z"
       style="fill:#4d4d4d;stroke-width:0.017224" />
    <path
       id="path149"
       d="m 164.29848,29.688493 v -4.628825 h 0.048 c 0.10405,0 2.17844,0.162922 2.39273,0.18789 0.89812,0.104581 1.51702,0.277216 1.93982,0.540744 0.18019,0.11223 0.61269,0.484324 0.5631,0.484324 -0.007,0 -0.0521,-0.03475 -0.10011,-0.07749 -0.32399,-0.28743 -0.7972,-0.548626 -1.23367,-0.680929 -0.33777,-0.10236 -0.93886,-0.184093 -1.63455,-0.222394 -0.17724,-0.01 -0.66739,-0.01676 -1.08937,-0.01676 l -0.76726,-7.8e-5 v 4.416943 4.416966 l 0.96223,-0.01 c 0.52924,-0.0033 1.06524,-0.0191 1.19112,-0.02909 0.38442,-0.03275 0.82804,-0.09037 1.05476,-0.136765 0.54863,-0.111986 1.12857,-0.401015 1.52761,-0.761052 0.054,-0.04885 0.10214,-0.0846 0.10695,-0.07971 0.01,0.01 -0.20867,0.215734 -0.36128,0.33891 -0.47676,0.384983 -1.19402,0.604236 -2.34501,0.716844 -0.28852,0.02831 -2.13274,0.170049 -2.21109,0.170049 h -0.0442 z"
       style="fill:#4d4d4d;stroke-width:0.0173911" />
    <path
       id="path155"
       d="m 171.15787,33.990487 c 0.52961,-0.580967 0.90747,-1.207662 1.18,-1.956957 0.38903,-1.069642 0.49494,-2.294712 0.29999,-3.4706 -0.19421,-1.171825 -0.66073,-2.23032 -1.3473,-3.057129 l -0.0681,-0.08193 h 0.11083 0.11082 l 0.0519,0.06017 c 0.36345,0.421087 0.71094,0.984401 0.9454,1.53255 0.25737,0.601783 0.42655,1.254357 0.4955,1.911483 0.0423,0.403335 0.048,0.872116 0.0158,1.271199 -0.0798,0.96797 -0.37405,1.915013 -0.84939,2.734205 -0.21954,0.378345 -0.46391,0.71469 -0.76512,1.053134 l -0.0757,0.08515 h -0.0891 -0.0891 l 0.0741,-0.08138 z"
       style="fill:#4d4d4d;stroke-width:0.00608961" />
    <path
       id="path157"
       d="m 171.0321,25.219748 c -0.27431,-0.277516 -0.442,-0.418722 -0.74361,-0.626118 -0.39692,-0.272909 -0.85736,-0.492395 -1.22735,-0.585064 -0.8834,-0.221162 -3.03175,-0.412249 -4.63019,-0.41165 -0.89651,3.33e-4 -0.97322,0.0078 -1.8215,0.173358 -0.23548,0.04596 -0.42813,0.07816 -0.42813,0.07172 0,-0.0078 0.0159,-0.03208 0.0343,-0.05695 0.0859,-0.112718 0.45645,-0.18618 1.22886,-0.243144 0.39796,-0.02942 2.14308,-0.02898 2.70444,6.33e-4 1.36694,0.07205 2.35733,0.186169 2.91487,0.335934 0.73936,0.198548 1.59343,0.733641 2.23081,1.397706 l 0.16932,0.176377 -0.10161,-4.88e-4 -0.10149,-5e-4 z"
       style="fill:#4d4d4d;stroke-width:0.017224" />
    <path
       id="path161"
       d="m 162.1851,35.651919 v -0.09192 l 2.24874,-0.0033 c 2.15638,-0.0033 2.36642,-0.0078 2.90998,-0.03209 0.82155,-0.03941 1.44717,-0.125275 1.92021,-0.263739 0.63159,-0.184781 1.12365,-0.491129 1.71429,-1.067077 l 0.11611,-0.11334 0.0864,0.0022 0.0865,0.0022 -0.21546,0.223739 c -0.2275,0.236172 -0.354,0.35806 -0.52058,0.501431 -0.71275,0.613562 -1.36842,0.821436 -2.83158,0.897751 -0.50005,0.02609 -0.74517,0.02875 -3.08802,0.03253 l -2.42676,0.0033 z"
       style="fill:#4d4d4d;stroke-width:0.00861191" />
    <path
       id="path165"
       d="m 177.27088,26.990302 c -0.01,-1.920686 -0.0158,-2.211469 -0.0722,-2.67259 -0.0615,-0.503697 -0.16573,-0.754823 -0.35516,-0.85614 -0.048,-0.02565 -0.036,-0.02731 0.21613,-0.02731 l 0.26706,-1.22e-4 v 2.746962 c 0,2.350677 -0.004,2.74694 -0.0239,2.74694 -0.0203,0 -0.0251,-0.286942 -0.032,-1.937728 z"
       style="fill:#4d4d4d;stroke-width:0.017224" />
    <path
       id="path167"
       d="m 175.14343,28.74296 c -0.0159,-0.350889 0.004,-4.072072 0.0254,-4.568186 0.0136,-0.296622 0.0226,-0.382407 0.0436,-0.417179 0.0384,-0.06073 0.18314,-0.124819 0.36871,-0.163798 0.15669,-0.03286 0.61947,-0.07072 0.82615,-0.06739 0.1086,0.0022 0.10918,0.0022 0.0425,0.01865 -0.2267,0.05817 -0.70599,0.194351 -0.76497,0.21721 -0.15781,0.06139 -0.25756,0.221873 -0.31222,0.501465 -0.0859,0.439805 -0.1031,0.882363 -0.11294,2.930223 l -0.01,1.823977 h -0.0471 -0.0471 z"
       style="fill:#4d4d4d;stroke-width:0.017224" />
    <path
       id="path169"
       d="m 194.98233,35.847225 -0.11747,-0.01221 0.12127,-0.01388 c 0.34096,-0.03686 0.48335,-0.181606 0.48245,-0.490685 -3.8e-4,-0.126929 -0.01,-0.159369 -0.0906,-0.373504 -0.81405,-2.115859 -4.99458,-10.792775 -5.49902,-11.413465 -0.0235,-0.02875 -0.0515,-0.05229 -0.0629,-0.05229 -0.0291,0 -0.1441,0.128561 -0.24072,0.26929 -0.76752,1.117591 -3.47516,6.587313 -4.85982,9.817266 -0.49152,1.146524 -0.72775,1.819847 -0.68205,1.944256 0.0423,0.115283 0.30859,0.234652 0.66268,0.296922 0.13,0.0232 0.12396,0.02343 -0.18837,0.01388 -0.44843,-0.01221 -0.85678,-0.06384 -0.88544,-0.111864 -0.0836,-0.140151 4.50909,-9.886376 5.66024,-12.011538 0.13313,-0.245687 0.26404,-0.403901 0.34779,-0.420155 0.22039,-0.04274 0.53781,0.445234 1.41264,2.172901 0.59653,1.178053 3.81203,7.809708 4.12326,8.50387 0.36111,0.805348 0.51258,1.211436 0.54937,1.472721 0.0313,0.223294 -0.0178,0.336823 -0.1705,0.383818 -0.081,0.02531 -0.39974,0.03775 -0.56297,0.0232 z"
       style="fill:#4d4d4d;stroke-width:0.0170738" />
    <path
       id="path171"
       d="m 194.3091,35.844239 -0.70239,-0.0022 -0.62625,-1.302895 c -0.34445,-0.716588 -0.63271,-1.317849 -0.6406,-1.336145 l -0.0137,-0.03331 -2.64487,0.0022 -2.64488,0.0022 -0.46976,1.135132 c -0.25835,0.624287 -0.49806,1.203299 -0.53268,1.286653 l -0.063,0.151631 -1.4e-4,-0.209495 -1.7e-4,-0.209494 0.0413,-0.07516 c 0.0566,-0.102472 0.13407,-0.262784 0.20589,-0.425095 0.0678,-0.153274 0.14702,-0.343739 0.4972,-1.195006 l 0.24624,-0.598496 2.7739,0.0022 2.77388,0.0022 0.22293,0.531984 c 0.50924,1.215256 0.53024,1.264127 0.6417,1.493927 0.26259,0.541354 0.43597,0.698181 0.83081,0.751481 0.11095,0.0141 0.36359,0.02331 0.55133,0.01632 0.19272,-0.0033 0.18227,-0.0078 0.29526,0.0078 l 0.0876,0.01 -0.0632,-6.1e-4 c -0.0348,-4.33e-4 -0.37931,-10e-4 -0.76562,-0.0022 z"
       style="fill:#4d4d4d;stroke-width:0.00610526" />
    <path
       id="path173"
       d="m 184.45961,35.828974 c -0.0576,-0.0022 -0.12616,-0.0033 -0.15239,-0.0033 -0.026,-4.33e-4 -0.0459,-0.0022 -0.0442,-0.0033 0.002,-0.0022 0.10619,-3.11e-4 0.23178,0.0033 0.21751,0.0078 0.2701,0.0033 0.23431,-0.0078 -0.0117,-0.0033 -0.004,-0.0033 0.018,-0.0022 0.26952,0.02454 0.54847,0.01221 0.70614,-0.03097 0.14674,-0.0403 0.25353,-0.106135 0.35963,-0.221873 0.0461,-0.05018 0.12186,-0.151886 0.14966,-0.200646 l 0.0158,-0.02898 0.002,0.204154 0.002,0.204121 -0.018,0.04785 -0.018,0.04785 -0.69237,-10e-4 c -0.38082,-5.77e-4 -0.73962,-0.0022 -0.79731,-0.0033 z"
       style="fill:#4d4d4d;stroke-width:0.00608961" />
    <path
       id="path175"
       d="m 189.23153,31.215758 c -0.64369,-0.02376 -1.09487,-0.08882 -1.25648,-0.181339 -0.0604,-0.03497 -0.074,-0.06028 -0.0615,-0.119191 0.0931,-0.447654 1.56265,-3.547514 1.78405,-3.762471 0.0209,-0.01876 0.0209,-0.01876 0.0412,-0.01 0.11657,0.05718 0.51753,0.796467 0.96614,1.781335 0.44193,0.97019 0.75916,1.806102 0.75916,2.000476 0,0.03908 -0.0233,0.0645 -0.0877,0.09648 -0.18674,0.09248 -0.60937,0.157781 -1.22076,0.188623 -0.17399,0.01 -0.7479,0.01232 -0.92378,0.0078 z m 1.39682,-0.08726 c 0.18723,-0.0078 0.27299,-0.01421 0.37105,-0.03131 0.36449,-0.0645 0.42237,-0.240713 0.23987,-0.730665 -0.0772,-0.207241 -0.15517,-0.383285 -0.46815,-1.058129 -0.42815,-0.923041 -0.66228,-1.414459 -0.84214,-1.76738 -0.13633,-0.267602 -0.18813,-0.358793 -0.2037,-0.358738 -0.012,2.3e-5 -0.0571,0.08582 -0.20044,0.380865 -0.40888,0.840741 -1.25204,2.705518 -1.50989,3.339319 l -0.026,0.06428 0.014,0.01643 c 0.0529,0.05695 0.4104,0.106579 0.96658,0.134467 0.30997,0.01421 1.35386,0.02354 1.65855,0.01232 z"
       style="fill:#4d4d4d;stroke-width:0.00620121" />
    <path
       id="path179"
       d="m 200.44211,33.473245 v -2.361479 l -1.12146,-1.920797 c -0.61682,-1.056453 -1.22819,-2.109775 -1.35865,-2.34073 -0.85983,-1.522391 -1.4682,-2.780678 -1.45016,-2.999287 0.0136,-0.154906 0.36244,-0.290372 0.80334,-0.311389 0.41575,-0.01865 0.63076,0.08515 0.96343,0.470269 0.28808,0.333503 0.60031,0.826498 1.49471,2.36008 0.49908,0.855774 0.80596,1.36762 1.14812,1.915036 0.28906,0.462475 0.53794,0.820613 0.58247,0.838255 0.0362,0.0141 0.0963,-0.05529 0.27622,-0.32037 0.34043,-0.501321 0.79119,-1.243666 1.64116,-2.702854 0.59201,-1.01633 0.91098,-1.544174 1.07969,-1.78673 0.31725,-0.456136 0.53965,-0.653029 0.8328,-0.737193 0.13202,-0.03797 1.10046,-0.05718 1.24165,-0.02454 0.22613,0.05207 0.21252,0.256611 -0.0536,0.804105 -0.24603,0.506262 -0.49658,0.939061 -2.7707,4.786107 l -1.42699,2.414002 v 2.139462 2.139473 h -0.94104 -0.94102 z"
       style="fill:#4d4d4d;stroke-width:0.017224" />
    <path
       id="path181"
       d="m 200.3841,33.521972 v -2.319669 l -0.95049,-1.610586 c -2.17227,-3.680971 -3.09236,-5.276014 -3.322,-5.758961 -0.0575,-0.120779 -0.0616,-0.137965 -0.039,-0.161701 0.0571,-0.0594 0.41739,-0.109465 0.87967,-0.121633 0.30913,-0.01 0.31469,-0.0078 0.18282,0.0141 -0.37004,0.06372 -0.59402,0.182172 -0.59402,0.314063 0,0.201024 0.3857,1.042909 1.0123,2.20946 0.36391,0.677443 0.66474,1.206363 1.77967,3.128915 l 1.10118,1.898815 v 2.362989 c 0,2.088837 -0.002,2.363022 -0.0254,2.363022 -0.0224,0 -0.0251,-0.269378 -0.0251,-2.319691 z"
       style="fill:#4d4d4d;stroke-width:0.0171115" />
    <path
       id="path183"
       d="m 201.38011,28.993642 c -0.21637,-0.281746 -0.85207,-1.313463 -1.6102,-2.612739 -0.89519,-1.534248 -1.15968,-1.952815 -1.49607,-2.367529 -0.20755,-0.255968 -0.43318,-0.419289 -0.64456,-0.466661 -0.10128,-0.02331 -0.0903,-0.02387 0.25882,-0.02487 l 0.36453,-0.001 1.60779,2.774784 c 0.88427,1.5261 1.60404,2.778602 1.59953,2.783287 -0.004,0.0033 -0.0405,-0.03342 -0.0798,-0.08471 z"
       style="fill:#4d4d4d;stroke-width:0.017224" />
    <path
       id="path185"
       d="m 202.28935,33.689312 2.8e-4,-2.147688 0.71359,-1.207262 c 0.3925,-0.66401 1.10472,-1.868841 1.58272,-2.67742 1.41294,-2.390122 1.66222,-2.824498 1.89267,-3.297642 0.2193,-0.450207 0.26652,-0.656282 0.17588,-0.76738 -0.0413,-0.05051 -0.0757,-0.0635 -0.26219,-0.0977 -0.0233,-0.0033 0.0495,-0.0033 0.16163,-0.0022 0.4623,0.0141 0.48904,0.134378 0.17049,0.770688 -0.17636,0.352332 -0.42491,0.779347 -1.32862,2.282433 -0.3966,0.659657 -1.20826,2.012433 -1.8037,3.006193 l -1.08263,1.806802 v 2.239235 2.239291 h -0.11012 -0.11035 z"
       style="fill:#4d4d4d;stroke-width:0.017224" />
    <path
       id="path187"
       d="m 201.57035,29.071534 c -3.8e-4,-0.01 0.72987,-1.258287 1.62281,-2.777182 l 1.6235,-2.761661 0.38146,0.0022 c 0.28211,0.001 0.3535,0.0033 0.27397,0.01632 -0.45751,0.06128 -0.72161,0.326098 -1.35075,1.354641 -0.0823,0.1346 -0.34172,0.575615 -0.57629,0.979793 -0.8457,1.45729 -1.23365,2.101649 -1.63804,2.720706 -0.22786,0.348847 -0.33526,0.497358 -0.33666,0.465628 z"
       style="fill:#4d4d4d;stroke-width:0.017224" />
    <rect
       style="fill:#b3b3b3;stroke-width:0.288104"
       id="rect74"
       width="7.5983672"
       height="0.40330869"
       x="175.13582"
       y="35.378159" />
    <path
       style="fill:#4d4d4d;fill-opacity:1;stroke-width:0.0254563"
       d="m 175.1493,35.612942 c -0.004,-0.09311 -0.004,-0.180738 -5e-5,-0.194727 0.005,-0.01645 1.3434,-0.02543 3.78756,-0.02543 h 3.77924 v 0.194724 0.194723 h -3.77919 -3.77919 z"
       id="path78" />
    <path
       style="fill:#4d4d4d;fill-opacity:1;stroke-width:0.00225004"
       d="m 175.23702,35.410587 c 0.002,-5.87e-4 0.005,-5.87e-4 0.006,8.2e-5 0.001,5.87e-4 -2.6e-4,0.0012 -0.004,0.0012 -0.003,-4.6e-5 -0.005,-5.87e-4 -0.003,-0.0012 z"
       id="path80" />
    <path
       style="fill:#4d4d4d;fill-opacity:1;stroke-width:0.00225004"
       d="m 175.13716,35.580274 v -0.201373 l 1.53985,5.88e-4 1.53986,5.87e-4 v 0.0053 0.0053 l -0.29157,0.0014 c -0.16036,8.81e-4 -0.42717,0.0014 -0.59289,0.0014 -0.35516,1.2e-5 -1.11408,0.0036 -1.47937,0.0069 -0.47423,0.0043 -0.6973,0.0098 -0.70441,0.01712 -0.004,0.0039 -0.003,0.14257 0.002,0.235307 0.002,0.05238 0.005,0.102726 0.005,0.111873 l 0.001,0.01662 h -0.01 -0.01 z"
       id="path82" />
    <path
       style="fill:#4d4d4d;fill-opacity:1;stroke-width:0.00112502"
       d="M 182.7161,35.586795 V 35.39288 h -0.99881 -0.99882 v -0.0069 -0.0069 l 1.00819,-2.91e-4 1.00819,-2.87e-4 v 0.183014 c 0,0.100662 -2.9e-4,0.191145 -8.5e-4,0.201086 l -8.5e-4,0.01806 h -0.009 -0.009 V 35.58675 Z"
       id="path84" />
    <path
       style="fill:#4d4d4d;fill-opacity:1;stroke-width:0.00112502"
       d="m 178.10924,35.39202 0.10783,-2.94e-4 v -0.0063 -0.0063 h 1.24976 1.24975 v 0.0069 0.0069 l -1.35758,-2.82e-4 c -0.74667,-1.52e-4 -1.30906,-2.93e-4 -1.24976,-5.87e-4 z"
       id="path86" />
  </g>
</svg>
